<svg xmlns="http://www.w3.org/2000/svg" width="39" height="46" fill="none" viewBox="0 0 39 46"><path fill="url(#paint0_radial_650_3098)" d="M31.508 34.254c.387-.322.765-.656 1.124-1.01.082-.072.164-.156.243-.235.108-.107.215-.22.324-.332.108-.113.175-.187.266-.285.146-.162.293-.327.433-.498.076-.086.147-.175.22-.26.1-.118.197-.237.29-.352l.227-.291.35-.48c.258-.371.506-.75.742-1.14.034-.047.065-.098.095-.147.03-.05.089-.155.133-.236a.128.128 0 01.024-.038c.38-.66.717-1.342 1.008-2.045l.034-.08c.054-.13.106-.26.157-.39.05-.13.116-.295.175-.442.06-.148.103-.297.154-.449.103-.299.201-.603.284-.909.043-.15.082-.306.122-.462.117-.46.222-.933.305-1.406.024-.141.05-.282.071-.426a.162.162 0 01.01-.072c.02-.107.034-.22.048-.329.014-.109.025-.193.035-.295.01-.102.026-.223.037-.336.017-.158.031-.316.044-.475.012-.158.02-.263.024-.397 0-.102.014-.206.014-.311 0-.106.01-.186.01-.285v-.497c0-5.13-2.028-10.05-5.64-13.678A19.211 19.211 0 0019.257 0 19.212 19.212 0 005.64 5.666 19.388 19.388 0 000 19.344c0 .335 0 .668.026.995 0 .15.018.297.028.445l.021.26c.016.175.034.351.055.527a.458.458 0 00.014.137c.026.199.05.398.084.596.068.48.157.955.264 1.424l.413 1.79.072-.088 1.085-1.334c.467-.573.973-1.133 1.505-1.667a22.085 22.085 0 014.401-3.458l.474-.27.018-.011v-.192c.12-1.572.58-3.1 1.345-4.476a10.867 10.867 0 013.091-3.495 10.785 10.785 0 0113.1.283c1.23.98 2.232 2.218 2.939 3.626a10.924 10.924 0 01.088 9.61c-.079.159-.15.313-.238.47-.082.151-.175.302-.26.45-.272.447-.574.875-.906 1.28-.164.205-.34.402-.525.589-.19.191-.366.37-.56.545a7.063 7.063 0 01-.39.343c-.131.108-.273.216-.41.32a10.921 10.921 0 01-2.007 1.197.019.019 0 00-.014 0 10.594 10.594 0 01-4.454.982 7.887 7.887 0 00-4.874 1.683 7.95 7.95 0 00-2.808 4.342l-.175.739v.024l.73.294c.174.072.35.13.524.193a18.391 18.391 0 002.274.679c.467.112.94.202 1.414.27.162.025.32.048.481.07a21.411 21.411 0 001.447.13h.083c.306.013.614.02.922.02.308 0 .618 0 .924-.02h.082a21.411 21.411 0 001.447-.13c.163-.022.319-.045.482-.07.476-.068.946-.16 1.414-.27.311-.072.617-.151.922-.238.19-.054.382-.112.567-.175.186-.064.375-.122.56-.187.252-.084.5-.175.744-.274.119-.047.238-.098.35-.151.718-.302 1.416-.65 2.09-1.043l.398-.239.396-.248c.114-.072.226-.15.35-.225.397-.269.79-.555 1.165-.854l.34-.288z"/><path fill="url(#paint1_linear_650_3098)" fill-rule="evenodd" d="M13.827 28.746a11.53 11.53 0 00-1.083.726A10.883 10.883 0 008.4 38.17v3.61c0 1.119-.442 2.192-1.23 2.983a4.19 4.19 0 01-5.94 0A4.229 4.229 0 010 41.781v-3.61a19.465 19.465 0 01.495-4.387 19.133 19.133 0 011.943-5.038c.084-.155.17-.306.259-.457a19.582 19.582 0 012.938-3.794 20.535 20.535 0 012.062-1.8c.35-.255.7-.505 1.05-.735a18.704 18.704 0 013.372-1.758 19.332 19.332 0 0114.282 0l.73.29-.19.765a7.923 7.923 0 01-2.787 4.334 7.861 7.861 0 01-4.853 1.69 10.773 10.773 0 00-5.474 1.465zm22.625 4.676l1.157-1.418.4 1.786c.33 1.437.495 2.907.494 4.383v3.608a4.229 4.229 0 01-1.23 2.983 4.19 4.19 0 01-5.94 0 4.229 4.229 0 01-1.23-2.983V38.79l.44-.262a22.226 22.226 0 004.404-3.44 21.155 21.155 0 001.505-1.666z" clip-rule="evenodd"/><defs><radialGradient id="paint0_radial_650_3098" cx="0" cy="0" r="1" gradientTransform="matrix(5.49998 -31.99999 31.87196 5.47798 17.5 30.5)" gradientUnits="userSpaceOnUse"><stop stop-color="#4C81E8"/><stop offset=".74" stop-color="#4F87F5"/><stop offset="1" stop-color="#6096FF"/></radialGradient><linearGradient id="paint1_linear_650_3098" x1="20" x2="13" y1="18" y2="46" gradientUnits="userSpaceOnUse"><stop stop-color="#5C5C5C"/><stop offset=".296" stop-color="#454545"/><stop offset="1" stop-color="#383838"/></linearGradient></defs></svg>